<svg width="511" height="203" viewBox="0 0 511 203" fill="none" xmlns="http://www.w3.org/2000/svg">
<path d="M18.304 54H12.992V9.84H1.92V9.2H29.44V9.84H18.304V54ZM59.565 54C57.8157 54 56.4717 53.616 55.533 52.848C54.637 52.08 54.1677 51.312 54.125 50.544L54.061 49.456V29.36C54.061 25.9893 53.165 23.8347 51.373 22.896C50.5197 22.4693 49.4317 22.256 48.109 22.256C45.4637 22.256 43.0743 23.344 40.941 25.52C38.8503 27.6533 37.805 29.5733 37.805 31.28V54H33.325V6.064H37.805V29.296C38.4877 27.4613 39.789 25.7547 41.709 24.176C43.629 22.5547 45.7837 21.744 48.173 21.744C52.3117 21.744 55.0637 22.4693 56.429 23.92C57.837 25.328 58.541 27.1627 58.541 29.424V49.456C58.541 50.6933 58.7757 51.6533 59.245 52.336C59.757 52.976 60.2477 53.3173 60.717 53.36L61.485 53.488H63.469V54H59.565ZM71.3495 38.384C71.3495 43.6747 72.2668 47.5573 74.1015 50.032C75.9788 52.5067 78.4322 53.744 81.4615 53.744C85.7282 53.744 89.5255 53.104 92.8535 51.824L93.0455 52.272C89.6322 53.5947 85.7708 54.256 81.4615 54.256C77.1948 54.256 73.7175 52.976 71.0295 50.416C68.3415 47.856 66.9975 43.9093 66.9975 38.576C66.9975 33.2427 68.4055 29.104 71.2215 26.16C74.0375 23.216 77.6215 21.744 81.9735 21.744C85.4722 21.744 88.4162 22.7893 90.8055 24.88C93.1948 26.9707 94.3895 30.064 94.3895 34.16C94.3895 34.3733 94.3895 34.5867 94.3895 34.8H71.5415C71.4135 35.952 71.3495 37.1467 71.3495 38.384ZM90.0375 34.288C89.9948 30.192 89.2055 27.1627 87.6695 25.2C86.1335 23.2373 84.1495 22.256 81.7175 22.256C79.2855 22.256 77.1095 23.3227 75.1895 25.456C73.3122 27.5893 72.1175 30.5333 71.6055 34.288H90.0375ZM122.412 38.384C122.412 43.6747 123.329 47.5573 125.164 50.032C127.041 52.5067 129.495 53.744 132.524 53.744C136.791 53.744 140.588 53.104 143.916 51.824L144.108 52.272C140.695 53.5947 136.833 54.256 132.524 54.256C128.257 54.256 124.78 52.976 122.092 50.416C119.404 47.856 118.06 43.9093 118.06 38.576C118.06 33.2427 119.468 29.104 122.284 26.16C125.1 23.216 128.684 21.744 133.036 21.744C136.535 21.744 139.479 22.7893 141.868 24.88C144.257 26.9707 145.452 30.064 145.452 34.16C145.452 34.3733 145.452 34.5867 145.452 34.8H122.604C122.476 35.952 122.412 37.1467 122.412 38.384ZM141.1 34.288C141.057 30.192 140.268 27.1627 138.732 25.2C137.196 23.2373 135.212 22.256 132.78 22.256C130.348 22.256 128.172 23.3227 126.252 25.456C124.375 27.5893 123.18 30.5333 122.668 34.288H141.1ZM168.686 24.24C168.003 23.6853 166.894 23.216 165.358 22.832C163.864 22.448 162.734 22.256 161.966 22.256C161.198 22.256 160.75 22.256 160.622 22.256C158.318 22.2987 156.654 22.896 155.63 24.048C154.606 25.1573 154.094 26.416 154.094 27.824C154.094 29.232 154.542 30.4267 155.438 31.408C156.334 32.3467 157.443 33.0933 158.766 33.648C160.131 34.16 161.582 34.7573 163.118 35.44C164.696 36.1227 166.147 36.8267 167.47 37.552C168.835 38.2347 169.966 39.2587 170.862 40.624C171.758 41.9467 172.206 43.6107 172.206 45.616C172.206 47.6213 171.502 49.328 170.094 50.736C168.686 52.144 167.107 53.0827 165.358 53.552C163.651 54.0213 161.795 54.256 159.79 54.256C155.438 54.256 152.174 53.296 149.998 51.376L150.382 50.992C151.235 51.8027 152.494 52.464 154.158 52.976C155.864 53.488 157.507 53.744 159.086 53.744C161.603 53.744 163.672 53.0613 165.294 51.696C166.958 50.288 167.79 48.56 167.79 46.512C167.79 44.4213 167.171 42.7573 165.934 41.52C164.696 40.24 163.182 39.2587 161.39 38.576C159.64 37.8507 157.87 37.1467 156.078 36.464C154.286 35.7387 152.771 34.7573 151.534 33.52C150.296 32.24 149.678 30.768 149.678 29.104C149.678 27.44 150.062 26.096 150.83 25.072C151.598 24.0053 152.622 23.2587 153.902 22.832C156.078 22.1067 158.254 21.744 160.43 21.744C164.099 21.744 166.958 22.4267 169.006 23.792L168.686 24.24ZM195.061 24.24C194.378 23.6853 193.269 23.216 191.733 22.832C190.239 22.448 189.109 22.256 188.341 22.256C187.573 22.256 187.125 22.256 186.997 22.256C184.693 22.2987 183.029 22.896 182.005 24.048C180.981 25.1573 180.469 26.416 180.469 27.824C180.469 29.232 180.917 30.4267 181.812 31.408C182.709 32.3467 183.818 33.0933 185.141 33.648C186.506 34.16 187.957 34.7573 189.493 35.44C191.071 36.1227 192.522 36.8267 193.845 37.552C195.21 38.2347 196.341 39.2587 197.237 40.624C198.133 41.9467 198.581 43.6107 198.581 45.616C198.581 47.6213 197.877 49.328 196.469 50.736C195.061 52.144 193.482 53.0827 191.733 53.552C190.026 54.0213 188.17 54.256 186.165 54.256C181.813 54.256 178.549 53.296 176.373 51.376L176.757 50.992C177.61 51.8027 178.869 52.464 180.533 52.976C182.239 53.488 183.882 53.744 185.461 53.744C187.978 53.744 190.047 53.0613 191.669 51.696C193.333 50.288 194.165 48.56 194.165 46.512C194.165 44.4213 193.546 42.7573 192.309 41.52C191.071 40.24 189.557 39.2587 187.765 38.576C186.015 37.8507 184.245 37.1467 182.453 36.464C180.661 35.7387 179.146 34.7573 177.909 33.52C176.671 32.24 176.053 30.768 176.053 29.104C176.053 27.44 176.437 26.096 177.205 25.072C177.973 24.0053 178.997 23.2587 180.277 22.832C182.453 22.1067 184.629 21.744 186.805 21.744C190.474 21.744 193.333 22.4267 195.381 23.792L195.061 24.24ZM207.725 38.384C207.725 43.6747 208.642 47.5573 210.477 50.032C212.354 52.5067 214.807 53.744 217.837 53.744C222.103 53.744 225.901 53.104 229.229 51.824L229.421 52.272C226.007 53.5947 222.146 54.256 217.837 54.256C213.57 54.256 210.093 52.976 207.405 50.416C204.717 47.856 203.373 43.9093 203.373 38.576C203.373 33.2427 204.781 29.104 207.597 26.16C210.413 23.216 213.997 21.744 218.349 21.744C221.847 21.744 224.791 22.7893 227.181 24.88C229.57 26.9707 230.765 30.064 230.765 34.16C230.765 34.3733 230.765 34.5867 230.765 34.8H207.917C207.789 35.952 207.725 37.1467 207.725 38.384ZM226.413 34.288C226.37 30.192 225.581 27.1627 224.045 25.2C222.509 23.2373 220.525 22.256 218.093 22.256C215.661 22.256 213.485 23.3227 211.565 25.456C209.687 27.5893 208.493 30.5333 207.981 34.288H226.413ZM259.933 54C258.183 54 256.839 53.616 255.901 52.848C255.005 52.08 254.535 51.312 254.493 50.544L254.429 49.456V29.36C254.429 25.9893 253.554 23.8347 251.805 22.896C250.909 22.4693 249.799 22.256 248.477 22.256C245.746 22.256 243.293 23.344 241.117 25.52C238.941 27.6533 237.853 29.5733 237.853 31.28V54H233.373V22H237.853V29.296C238.578 27.4613 239.922 25.7547 241.885 24.176C243.847 22.5547 246.002 21.744 248.349 21.744C250.695 21.744 252.594 21.9787 254.045 22.448C255.538 22.8747 256.626 23.4933 257.309 24.304C258.375 25.6267 258.909 27.3333 258.909 29.424V49.456C258.909 50.6933 259.143 51.6533 259.613 52.336C260.125 52.976 260.637 53.3173 261.149 53.36L261.853 53.488H263.837V54H259.933ZM281.411 22.256C278.382 22.256 275.843 23.7067 273.795 26.608C271.79 29.5093 270.787 33.52 270.787 38.64C270.787 43.76 271.704 47.5573 273.539 50.032C275.416 52.5067 277.87 53.744 280.899 53.744C284.696 53.744 288.067 53.104 291.011 51.824L291.203 52.272C288.174 53.5947 284.632 54.256 280.579 54.256C276.526 54.256 273.155 52.976 270.467 50.416C267.779 47.856 266.435 43.9093 266.435 38.576C266.435 33.2427 267.843 29.104 270.659 26.16C273.475 23.216 277.059 21.744 281.411 21.744C283.843 21.744 286.083 22.2987 288.131 23.408C290.222 24.5173 291.758 26.2027 292.739 28.464H288.643C288.003 26.3733 287.022 24.816 285.699 23.792C284.419 22.768 282.99 22.256 281.411 22.256ZM300.975 38.384C300.975 43.6747 301.892 47.5573 303.727 50.032C305.604 52.5067 308.057 53.744 311.087 53.744C315.353 53.744 319.151 53.104 322.479 51.824L322.671 52.272C319.257 53.5947 315.396 54.256 311.087 54.256C306.82 54.256 303.343 52.976 300.655 50.416C297.967 47.856 296.623 43.9093 296.623 38.576C296.623 33.2427 298.031 29.104 300.847 26.16C303.663 23.216 307.247 21.744 311.599 21.744C315.097 21.744 318.041 22.7893 320.431 24.88C322.82 26.9707 324.015 30.064 324.015 34.16C324.015 34.3733 324.015 34.5867 324.015 34.8H301.167C301.039 35.952 300.975 37.1467 300.975 38.384ZM319.663 34.288C319.62 30.192 318.831 27.1627 317.295 25.2C315.759 23.2373 313.775 22.256 311.343 22.256C308.911 22.256 306.735 23.3227 304.815 25.456C302.937 27.5893 301.743 30.5333 301.231 34.288H319.663ZM17.728 118.256C13.248 118.256 9.6 116.976 6.784 114.416C3.968 111.856 2.56 107.909 2.56 102.576C2.56 97.2427 4.01067 93.104 6.912 90.16C9.856 87.216 13.568 85.744 18.048 85.744C22.5707 85.744 26.24 87.024 29.056 89.584C31.872 92.144 33.28 96.0907 33.28 101.424C33.28 106.757 31.808 110.896 28.864 113.84C25.9627 116.784 22.2507 118.256 17.728 118.256ZM18.176 86.256C14.9333 86.256 12.2453 87.7067 10.112 90.608C7.97867 93.4667 6.912 97.4773 6.912 102.64C6.912 107.76 7.89333 111.557 9.856 114.032C11.8187 116.507 14.4213 117.744 17.664 117.744C20.9067 117.744 23.5947 116.315 25.728 113.456C27.8613 110.555 28.928 106.544 28.928 101.424C28.928 96.2613 27.9467 92.4427 25.984 89.968C24.0213 87.4933 21.4187 86.256 18.176 86.256ZM42.6265 82.992V86H47.6825V86.512H42.6265V118H38.1465V86.512H36.8025V86H38.1465V82.992C38.1465 78.3413 39.1492 75.0347 41.1545 73.072C43.1598 71.0667 46.4025 70.0427 50.8825 70V70.512C47.9385 70.5547 45.8265 71.5573 44.5465 73.52C43.2665 75.44 42.6265 78.5973 42.6265 82.992ZM76.912 102.384C76.912 107.675 77.8293 111.557 79.664 114.032C81.5413 116.507 83.9947 117.744 87.024 117.744C91.2907 117.744 95.088 117.104 98.416 115.824L98.608 116.272C95.1947 117.595 91.3333 118.256 87.024 118.256C82.7573 118.256 79.28 116.976 76.592 114.416C73.904 111.856 72.56 107.909 72.56 102.576C72.56 97.2427 73.968 93.104 76.784 90.16C79.6 87.216 83.184 85.744 87.536 85.744C91.0347 85.744 93.9787 86.7893 96.368 88.88C98.7573 90.9707 99.952 94.064 99.952 98.16C99.952 98.3733 99.952 98.5867 99.952 98.8H77.104C76.976 99.952 76.912 101.147 76.912 102.384ZM95.6 98.288C95.5573 94.192 94.768 91.1627 93.232 89.2C91.696 87.2373 89.712 86.256 87.28 86.256C84.848 86.256 82.672 87.3227 80.752 89.456C78.8747 91.5893 77.68 94.5333 77.168 98.288H95.6ZM127.489 86.384L127.873 86C128.043 86.0853 128.257 86.3413 128.513 86.768C128.811 87.1947 128.982 87.5787 129.025 87.92C129.11 88.2613 129.153 88.5813 129.153 88.88C129.153 90.032 128.897 91.2053 128.385 92.4L116.097 118H115.457L103.553 86H108.033L117.825 112.496L127.745 92.4C128.257 91.504 128.513 90.4373 128.513 89.2C128.513 87.9627 128.171 87.024 127.489 86.384ZM137.037 102.384C137.037 107.675 137.954 111.557 139.789 114.032C141.666 116.507 144.12 117.744 147.149 117.744C151.416 117.744 155.213 117.104 158.541 115.824L158.733 116.272C155.32 117.595 151.458 118.256 147.149 118.256C142.882 118.256 139.405 116.976 136.717 114.416C134.029 111.856 132.685 107.909 132.685 102.576C132.685 97.2427 134.093 93.104 136.909 90.16C139.725 87.216 143.309 85.744 147.661 85.744C151.16 85.744 154.104 86.7893 156.493 88.88C158.882 90.9707 160.077 94.064 160.077 98.16C160.077 98.3733 160.077 98.5867 160.077 98.8H137.229C137.101 99.952 137.037 101.147 137.037 102.384ZM155.725 98.288C155.682 94.192 154.893 91.1627 153.357 89.2C151.821 87.2373 149.837 86.256 147.405 86.256C144.973 86.256 142.797 87.3227 140.877 89.456C139 91.5893 137.805 94.5333 137.293 98.288H155.725ZM174.909 88.752V87.408C172.989 88.176 171.24 89.7333 169.661 92.08C168.082 94.384 167.25 96.56 167.165 98.608V118H162.685V86H167.165V96.176C167.848 93.7013 169.149 91.376 171.069 89.2C172.989 86.9813 175.165 85.8293 177.597 85.744H177.853C178.706 85.744 179.41 86.0427 179.965 86.64C180.562 87.1947 180.861 87.8987 180.861 88.752C180.861 89.6053 180.562 90.3093 179.965 90.864C179.41 91.4187 178.706 91.696 177.853 91.696C177 91.696 176.296 91.4187 175.741 90.864C175.186 90.3093 174.909 89.6053 174.909 88.752ZM193.557 129.456C192.192 132.485 190.506 134 188.501 134C187.605 134 186.56 133.851 185.365 133.552V133.04C186.346 133.296 187.221 133.424 187.989 133.424C190.165 133.424 191.829 132.101 192.981 129.456L198.357 118H198.293L186.389 86H190.869L200.789 112.688L210.581 92.4C211.093 91.504 211.349 90.4373 211.349 89.2C211.349 87.9627 211.008 87.024 210.325 86.384L210.709 86C210.88 86.0853 211.093 86.3413 211.349 86.768C211.648 87.1947 211.818 87.5787 211.861 87.92C211.946 88.2613 211.989 88.5813 211.989 88.88C211.989 90.032 211.733 91.2053 211.221 92.4L198.933 118L193.557 129.456ZM216.49 86.512V86H217.834V79.6H222.314V86H232.106V86.512H222.314V109.808C222.314 112.581 222.613 114.587 223.21 115.824C223.85 117.061 225.151 117.68 227.114 117.68C229.119 117.68 231.146 117.275 233.194 116.464L233.386 116.976C231.253 117.787 228.799 118.192 226.026 118.192C223.295 118.192 221.247 117.637 219.882 116.528C218.517 115.376 217.834 113.115 217.834 109.744V86.512H216.49ZM263.128 118C261.378 118 260.034 117.616 259.096 116.848C258.2 116.08 257.73 115.312 257.688 114.544L257.624 113.456V93.36C257.624 89.9893 256.728 87.8347 254.936 86.896C254.082 86.4693 252.994 86.256 251.672 86.256C249.026 86.256 246.637 87.344 244.504 89.52C242.413 91.6533 241.368 93.5733 241.368 95.28V118H236.888V70.064H241.368V93.296C242.05 91.4613 243.352 89.7547 245.272 88.176C247.192 86.5547 249.346 85.744 251.736 85.744C255.874 85.744 258.626 86.4693 259.992 87.92C261.4 89.328 262.104 91.1627 262.104 93.424V113.456C262.104 114.693 262.338 115.653 262.808 116.336C263.32 116.976 263.81 117.317 264.28 117.36L265.048 117.488H267.032V118H263.128ZM277.088 118C275.339 118 273.995 117.616 273.056 116.848C272.16 116.08 271.691 115.312 271.648 114.544L271.584 113.456V86H276.064V113.456C276.064 114.693 276.299 115.653 276.768 116.336C277.28 116.976 277.771 117.317 278.24 117.36L279.008 117.488H280.992V118H277.088ZM271.968 78.832C271.456 78.32 271.2 77.68 271.2 76.912C271.2 76.144 271.456 75.504 271.968 74.992C272.48 74.4373 273.12 74.16 273.888 74.16C274.656 74.16 275.296 74.4373 275.808 74.992C276.363 75.504 276.64 76.144 276.64 76.912C276.64 77.68 276.363 78.32 275.808 78.832C275.296 79.344 274.656 79.6 273.888 79.6C273.12 79.6 272.48 79.344 271.968 78.832ZM311.433 118C309.683 118 308.339 117.616 307.401 116.848C306.505 116.08 306.035 115.312 305.993 114.544L305.929 113.456V93.36C305.929 89.9893 305.054 87.8347 303.305 86.896C302.409 86.4693 301.299 86.256 299.977 86.256C297.246 86.256 294.793 87.344 292.617 89.52C290.441 91.6533 289.353 93.5733 289.353 95.28V118H284.873V86H289.353V93.296C290.078 91.4613 291.422 89.7547 293.385 88.176C295.347 86.5547 297.502 85.744 299.849 85.744C302.195 85.744 304.094 85.9787 305.545 86.448C307.038 86.8747 308.126 87.4933 308.809 88.304C309.875 89.6267 310.409 91.3333 310.409 93.424V113.456C310.409 114.693 310.643 115.653 311.113 116.336C311.625 116.976 312.137 117.317 312.649 117.36L313.353 117.488H315.337V118H311.433ZM317.615 103.152C317.615 97.6053 318.959 93.3173 321.647 90.288C324.335 87.2587 328.367 85.744 333.743 85.744C337.711 85.744 341.743 86.448 345.839 87.856V118.768C345.796 128.923 341.359 134 332.527 134C327.663 134 323.503 132.421 320.047 129.264L320.495 128.88C324.164 131.952 328.175 133.488 332.527 133.488C338.415 133.488 341.359 128.581 341.359 118.768V112.432C340.548 113.925 339.204 115.248 337.327 116.4C335.45 117.552 333.231 118.128 330.671 118.128C321.967 117.915 317.615 112.923 317.615 103.152ZM330.735 117.616C333.594 117.616 336.047 116.848 338.095 115.312C340.143 113.776 341.231 112.261 341.359 110.768V88.176C338.287 86.896 335.684 86.256 333.551 86.256C329.754 86.256 326.895 87.7493 324.975 90.736C323.055 93.68 322.095 97.8187 322.095 103.152C322.095 112.795 324.975 117.616 330.735 117.616Z" fill="#474747"/>
<path d="M8.72 138.12C9.94667 136.84 11.44 136.2 13.2 136.2C14.96 136.2 16.4533 136.84 17.68 138.12C18.96 139.347 19.6 140.84 19.6 142.6C19.6 144.36 18.96 145.853 17.68 147.08C16.4533 148.307 14.96 148.92 13.2 148.92C11.44 148.92 9.94667 148.307 8.72 147.08C7.49333 145.853 6.88 144.36 6.88 142.6C6.88 140.84 7.49333 139.347 8.72 138.12ZM5.44 161.56C5.97333 160.6 6.98667 159.88 8.48 159.4C9.97333 158.867 11.44 158.6 12.88 158.6C14.3733 158.6 15.68 158.787 16.8 159.16C14.72 175.213 13.68 183.32 13.68 183.48C13.4133 184.547 13.28 185.453 13.28 186.2C13.28 186.893 13.3333 187.507 13.44 188.04C13.6533 189.427 14.6133 190.12 16.32 190.12C18.08 190.12 19.68 189 21.12 186.76C22.6133 184.467 23.7333 181.88 24.48 179C24.8533 179.213 25.44 179.853 26.24 180.92C27.04 181.987 27.52 182.787 27.68 183.32C26.6133 187.587 24.8 191.027 22.24 193.64C19.68 196.253 16.6133 197.56 13.04 197.56C9.46667 197.56 6.8 196.68 5.04 194.92C3.33333 193.16 2.48 190.893 2.48 188.12C2.48 187.533 2.50667 186.92 2.56 186.28L5.44 161.56ZM39.2356 141.32C39.2356 141.64 38.5156 147.373 37.0756 158.52H48.8356V164.68H36.2756L36.0356 166.68C42.2756 171.907 45.3956 177.613 45.3956 183.8C45.3956 188.653 44.1423 192.147 41.6356 194.28C39.1823 196.413 36.2223 197.48 32.7556 197.48C29.289 197.48 26.7556 196.573 25.1556 194.76C23.5556 192.893 22.7556 190.653 22.7556 188.04C22.7556 187.453 22.809 186.813 22.9156 186.12L25.3956 164.84L25.0756 164.68H18.5956C18.5423 164.147 18.5156 163.293 18.5156 162.12C18.5156 160.893 18.7556 159.693 19.2356 158.52H26.1156L28.6756 136.76C29.7956 136.333 31.289 136.12 33.1556 136.12C37.209 136.12 39.2356 137.853 39.2356 141.32ZM40.0356 183.72C40.0356 180.04 38.4356 176.413 35.2356 172.84C34.2756 180.787 33.7956 185.373 33.7956 186.6C33.7956 189 34.569 190.2 36.1156 190.2C37.2356 190.2 38.169 189.693 38.9156 188.68C39.6623 187.613 40.0356 185.96 40.0356 183.72ZM84.2556 197.4C79.349 197.4 76.0956 195.693 74.4956 192.28C71.7223 195.747 68.149 197.48 63.7756 197.48C59.4556 197.48 55.8023 196.013 52.8156 193.08C49.8823 190.147 48.4156 186.28 48.4156 181.48C48.4156 174.493 50.469 168.92 54.5756 164.76C58.6823 160.6 63.8823 158.52 70.1756 158.52C70.3356 158.52 70.4956 158.52 70.6556 158.52C73.3223 158.52 75.7756 158.973 78.0156 159.88C79.4556 158.973 81.189 158.52 83.2156 158.52C85.2956 158.52 86.789 158.787 87.6956 159.32C87.2156 163.267 86.709 167.16 86.1756 171C85.6423 174.787 85.269 177.48 85.0556 179.08C84.5756 182.707 84.3356 185.32 84.3356 186.92C84.3356 189.053 85.189 190.12 86.8956 190.12C88.229 190.12 89.6423 189.24 91.1356 187.48C92.629 185.667 93.9356 182.84 95.0556 179C96.6023 180.387 97.669 181.933 98.2556 183.64C96.709 188.707 94.629 192.28 92.0156 194.36C89.4023 196.387 86.8156 197.4 84.2556 197.4ZM71.3756 164.76C67.9623 164.76 65.2423 166.067 63.2156 168.68C61.2423 171.24 60.069 175.08 59.6956 180.2C59.6423 180.68 59.6156 181.133 59.6156 181.56C59.6156 184.173 60.229 186.253 61.4556 187.8C62.7356 189.347 64.3623 190.12 66.3356 190.12C69.6956 190.12 72.229 187.747 73.9356 183L75.8556 165.72C74.309 165.08 72.8156 164.76 71.3756 164.76ZM103.204 197.56C99.9504 197.56 97.3904 196.653 95.5238 194.84C93.6571 192.973 92.7238 190.44 92.7238 187.24C92.7238 186.387 94.1638 173.72 97.0438 149.24C97.7904 142.947 99.7904 138.973 103.044 137.32C104.537 136.52 106.324 136.12 108.404 136.12C115.444 136.12 118.964 139.373 118.964 145.88C118.964 146.413 118.937 146.973 118.884 147.56C118.35 154.707 113.87 161.987 105.444 169.4C105.177 172.013 104.884 174.547 104.564 177C103.924 182.493 103.604 185.533 103.604 186.12C103.604 188.893 104.804 190.28 107.204 190.28C109.817 190.28 112.244 188.787 114.484 185.8C116.777 182.76 118.537 178.893 119.764 174.2C120.244 174.36 120.91 174.813 121.764 175.56C122.617 176.253 123.204 176.867 123.524 177.4C122.67 181.827 120.75 186.067 117.764 190.12C116.27 192.2 114.377 193.907 112.084 195.24C109.47 196.787 106.51 197.56 103.204 197.56ZM106.324 161.4C111.23 156.013 113.684 151.187 113.684 146.92C113.684 144.36 112.724 143.08 110.804 143.08C109.577 143.187 108.75 143.987 108.324 145.48C107.95 146.973 107.577 149.4 107.204 152.76C106.884 156.12 106.67 158.2 106.564 159L106.324 161.4ZM123.017 138.12C124.244 136.84 125.737 136.2 127.497 136.2C129.257 136.2 130.75 136.84 131.977 138.12C133.257 139.347 133.897 140.84 133.897 142.6C133.897 144.36 133.257 145.853 131.977 147.08C130.75 148.307 129.257 148.92 127.497 148.92C125.737 148.92 124.244 148.307 123.017 147.08C121.79 145.853 121.177 144.36 121.177 142.6C121.177 140.84 121.79 139.347 123.017 138.12ZM119.737 161.56C120.27 160.6 121.284 159.88 122.777 159.4C124.27 158.867 125.737 158.6 127.177 158.6C128.67 158.6 129.977 158.787 131.097 159.16C129.017 175.213 127.977 183.32 127.977 183.48C127.71 184.547 127.577 185.453 127.577 186.2C127.577 186.893 127.63 187.507 127.737 188.04C127.95 189.427 128.91 190.12 130.617 190.12C132.377 190.12 133.977 189 135.417 186.76C136.91 184.467 138.03 181.88 138.777 179C139.15 179.213 139.737 179.853 140.537 180.92C141.337 181.987 141.817 182.787 141.977 183.32C140.91 187.587 139.097 191.027 136.537 193.64C133.977 196.253 130.91 197.56 127.337 197.56C123.764 197.56 121.097 196.68 119.337 194.92C117.63 193.16 116.777 190.893 116.777 188.12C116.777 187.533 116.804 186.92 116.857 186.28L119.737 161.56ZM171.053 197.4C166.146 197.4 162.893 195.693 161.293 192.28C158.519 195.747 154.946 197.48 150.573 197.48C146.253 197.48 142.599 196.013 139.613 193.08C136.679 190.147 135.213 186.28 135.213 181.48C135.213 174.493 137.266 168.92 141.373 164.76C145.479 160.6 150.679 158.52 156.973 158.52C157.133 158.52 157.293 158.52 157.453 158.52C160.119 158.52 162.573 158.973 164.813 159.88C166.253 158.973 167.986 158.52 170.013 158.52C172.093 158.52 173.586 158.787 174.493 159.32C174.013 163.267 173.506 167.16 172.973 171C172.439 174.787 172.066 177.48 171.853 179.08C171.373 182.707 171.133 185.32 171.133 186.92C171.133 189.053 171.986 190.12 173.693 190.12C175.026 190.12 176.439 189.24 177.933 187.48C179.426 185.667 180.733 182.84 181.853 179C183.399 180.387 184.466 181.933 185.053 183.64C183.506 188.707 181.426 192.28 178.813 194.36C176.199 196.387 173.613 197.4 171.053 197.4ZM158.173 164.76C154.759 164.76 152.039 166.067 150.013 168.68C148.039 171.24 146.866 175.08 146.493 180.2C146.439 180.68 146.413 181.133 146.413 181.56C146.413 184.173 147.026 186.253 148.253 187.8C149.533 189.347 151.159 190.12 153.133 190.12C156.493 190.12 159.026 187.747 160.733 183L162.653 165.72C161.106 165.08 159.613 164.76 158.173 164.76ZM202.081 188.04L204.001 170.2C204.001 168.76 203.627 167.56 202.881 166.6C202.134 165.64 200.881 165.16 199.121 165.16C197.414 165.16 195.947 165.933 194.721 167.48C193.547 168.973 192.801 170.867 192.481 173.16C190.561 187.773 189.547 195.72 189.441 197H178.641L183.041 159.32C185.281 158.733 186.987 158.44 188.161 158.44C191.734 158.44 193.601 159.747 193.761 162.36C196.374 159.8 199.494 158.52 203.121 158.52C206.801 158.52 209.681 159.427 211.761 161.24C213.841 163.053 214.881 165.347 214.881 168.12C214.881 168.867 214.721 170.28 214.401 172.36C213.174 180.467 212.561 185.187 212.561 186.52C212.561 188.973 213.387 190.2 215.041 190.2C218.667 190.2 221.414 186.413 223.281 178.84C225.094 180.76 226.187 182.28 226.561 183.4C223.734 192.787 218.827 197.48 211.841 197.48C208.534 197.48 206.081 196.467 204.481 194.44C202.881 192.413 202.081 190.28 202.081 188.04Z" fill="#016833"/>
<line x1="252" y1="174.5" x2="348" y2="174.5" stroke="#016833"/>
</svg>
