<svg width="174" height="46" viewBox="0 0 174 46" fill="none" xmlns="http://www.w3.org/2000/svg">
<path d="M10.36 13.16C10.36 13.32 10 16.1867 9.28 21.76H15.16V24.84H8.88L8.76 25.84C11.88 28.4533 13.44 31.3067 13.44 34.4C13.44 36.8267 12.8133 38.5733 11.56 39.64C10.3333 40.7067 8.85333 41.24 7.12 41.24C5.38667 41.24 4.12 40.7867 3.32 39.88C2.52 38.9467 2.12 37.8267 2.12 36.52C2.12 36.2267 2.14667 35.9067 2.2 35.56L3.44 24.92L3.28 24.84H0.04C0.0133333 24.5733 0 24.1467 0 23.56C0 22.9467 0.12 22.3467 0.36 21.76H3.8L5.08 10.88C5.64 10.6667 6.38667 10.56 7.32 10.56C9.34667 10.56 10.36 11.4267 10.36 13.16ZM10.76 34.36C10.76 32.52 9.96 30.7067 8.36 28.92C7.88 32.8933 7.64 35.1867 7.64 35.8C7.64 37 8.02667 37.6 8.8 37.6C9.36 37.6 9.82667 37.3467 10.2 36.84C10.5733 36.3067 10.76 35.48 10.76 34.36ZM32.91 22.16C31.8167 30.8 31.27 35.4 31.27 35.96C31.27 37.0267 31.6567 37.56 32.43 37.56C33.1233 37.56 33.87 37.0933 34.67 36.16C35.4967 35.2 36.15 33.7733 36.63 31.88C37.51 32.84 38.0433 33.5867 38.23 34.12C37.6167 36.7067 36.6433 38.5333 35.31 39.6C33.9767 40.6667 32.6033 41.2 31.19 41.2C28.87 41.2 27.31 40.3067 26.51 38.52C25.1233 40.3067 23.27 41.2 20.95 41.2C19.03 41.2 17.55 40.72 16.51 39.76C15.47 38.8 14.95 37.5467 14.95 36C14.95 35.6267 15.0167 34.9733 15.15 34.04C15.7633 29.08 16.23 25.1333 16.55 22.2C17.3767 21.9067 18.1367 21.76 18.83 21.76C19.5233 21.76 20.0433 21.7867 20.39 21.84C20.7367 21.8933 21.07 22.0933 21.39 22.44C21.71 22.7867 21.87 23.28 21.87 23.92L20.55 34.12C20.4967 34.44 20.47 34.7333 20.47 35C20.47 36.5733 21.19 37.36 22.63 37.36C23.9633 37.36 25.07 36.7067 25.95 35.4C25.95 35.1067 25.9767 34.64 26.03 34L27.35 23.36C27.5367 22.9067 27.9367 22.5333 28.55 22.24C29.1633 21.92 29.9233 21.76 30.83 21.76C31.7633 21.76 32.4567 21.8933 32.91 22.16ZM44.3834 13.16C44.3834 13.32 44.0234 16.1867 43.3034 21.76H49.1834V24.84H42.9034L42.7834 25.84C45.9034 28.4533 47.4634 31.3067 47.4634 34.4C47.4634 36.8267 46.8368 38.5733 45.5834 39.64C44.3568 40.7067 42.8768 41.24 41.1434 41.24C39.4101 41.24 38.1434 40.7867 37.3434 39.88C36.5434 38.9467 36.1434 37.8267 36.1434 36.52C36.1434 36.2267 36.1701 35.9067 36.2234 35.56L37.4634 24.92L37.3034 24.84H34.0634C34.0368 24.5733 34.0234 24.1467 34.0234 23.56C34.0234 22.9467 34.1434 22.3467 34.3834 21.76H37.8234L39.1034 10.88C39.6634 10.6667 40.4101 10.56 41.3434 10.56C43.3701 10.56 44.3834 11.4267 44.3834 13.16ZM44.7834 34.36C44.7834 32.52 43.9834 30.7067 42.3834 28.92C41.9034 32.8933 41.6634 35.1867 41.6634 35.8C41.6634 37 42.0501 37.6 42.8234 37.6C43.3834 37.6 43.8501 37.3467 44.2234 36.84C44.5968 36.3067 44.7834 35.48 44.7834 34.36ZM58.1334 13.16C58.1334 13.32 57.7734 16.1867 57.0534 21.76H62.9334V24.84H56.6534L56.5334 25.84C59.6534 28.4533 61.2134 31.3067 61.2134 34.4C61.2134 36.8267 60.5868 38.5733 59.3334 39.64C58.1068 40.7067 56.6268 41.24 54.8934 41.24C53.1601 41.24 51.8934 40.7867 51.0934 39.88C50.2934 38.9467 49.8934 37.8267 49.8934 36.52C49.8934 36.2267 49.9201 35.9067 49.9734 35.56L51.2134 24.92L51.0534 24.84H47.8134C47.7868 24.5733 47.7734 24.1467 47.7734 23.56C47.7734 22.9467 47.8934 22.3467 48.1334 21.76H51.5734L52.8534 10.88C53.4134 10.6667 54.1601 10.56 55.0934 10.56C57.1201 10.56 58.1334 11.4267 58.1334 13.16ZM58.5334 34.36C58.5334 32.52 57.7334 30.7067 56.1334 28.92C55.6534 32.8933 55.4134 35.1867 55.4134 35.8C55.4134 37 55.8001 37.6 56.5734 37.6C57.1334 37.6 57.6001 37.3467 57.9734 36.84C58.3468 36.3067 58.5334 35.48 58.5334 34.36ZM73.3234 21.76C75.7768 21.76 77.8168 22.5467 79.4434 24.12C81.0968 25.6933 81.9234 27.6133 81.9234 29.88C81.9234 33.32 80.9101 36.08 78.8834 38.16C76.8834 40.2133 74.4568 41.24 71.6034 41.24C68.7501 41.24 66.4834 40.4267 64.8034 38.8C63.1501 37.1733 62.3234 35.16 62.3234 32.76C62.3234 29.4 63.3501 26.7333 65.4034 24.76C67.4834 22.76 70.1234 21.76 73.3234 21.76ZM72.5234 25C71.2701 25 70.2168 25.72 69.3634 27.16C68.5101 28.6 68.0434 30.4133 67.9634 32.6C67.9634 34.1467 68.2701 35.4267 68.8834 36.44C69.5234 37.4533 70.4834 37.96 71.7634 37.96C73.0434 37.96 74.1101 37.2533 74.9634 35.84C75.8434 34.4267 76.2834 32.8133 76.2834 31C76.2834 29.1867 75.9768 27.7467 75.3634 26.68C74.7501 25.56 73.8034 25 72.5234 25Z" fill="#880819"/>
<path d="M93.4 25.2V25H96.96V25.2H95.98V38.8H96.96V39H93.4V38.8H94.32V25.2H93.4ZM104.087 39H102.427V25.2H98.9672V25H107.567V25.2H104.087V39ZM107.41 39H107.17L113.15 25L113.37 24.9L118.41 39H116.71L115.15 34.6H109.31L107.41 39ZM112.53 27.16L109.39 34.4H115.09L112.53 27.16ZM127.816 39H120.216V25H121.876V38.8H127.816V39ZM129.826 25.2V25H133.386V25.2H132.406V38.8H133.386V39H129.826V38.8H130.746V25.2H129.826ZM135.438 39H135.198L141.178 25L141.398 24.9L146.438 39H144.738L143.178 34.6H137.338L135.438 39ZM140.558 27.16L137.418 34.4H143.118L140.558 27.16ZM148.404 39H148.144V25H148.824L157.144 37.94V25H157.404V39H155.944L148.404 27.4V39Z" fill="#016833"/>
<path d="M131.195 45.0666L173.704 45.1689" stroke="#016833"/>
</svg>
