<svg width="124" height="93" viewBox="0 0 124 93" fill="none" xmlns="http://www.w3.org/2000/svg">
<path d="M15.54 19.24C15.54 19.48 15 23.78 13.92 32.14H22.74V36.76H13.32L13.14 38.26C17.82 42.18 20.16 46.46 20.16 51.1C20.16 54.74 19.22 57.36 17.34 58.96C15.5 60.56 13.28 61.36 10.68 61.36C8.08 61.36 6.18 60.68 4.98 59.32C3.78 57.92 3.18 56.24 3.18 54.28C3.18 53.84 3.22 53.36 3.3 52.84L5.16 36.88L4.92 36.76H0.06C0.02 36.36 0 35.72 0 34.84C0 33.92 0.18 33.02 0.54 32.14H5.7L7.62 15.82C8.46 15.5 9.58 15.34 10.98 15.34C14.02 15.34 15.54 16.64 15.54 19.24ZM16.14 51.04C16.14 48.28 14.94 45.56 12.54 42.88C11.82 48.84 11.46 52.28 11.46 53.2C11.46 55 12.04 55.9 13.2 55.9C14.04 55.9 14.74 55.52 15.3 54.76C15.86 53.96 16.14 52.72 16.14 51.04ZM49.365 32.74C47.725 45.7 46.905 52.6 46.905 53.44C46.905 55.04 47.485 55.84 48.645 55.84C49.685 55.84 50.805 55.14 52.005 53.74C53.245 52.3 54.225 50.16 54.945 47.32C56.265 48.76 57.065 49.88 57.345 50.68C56.425 54.56 54.965 57.3 52.965 58.9C50.965 60.5 48.905 61.3 46.785 61.3C43.305 61.3 40.965 59.96 39.765 57.28C37.685 59.96 34.905 61.3 31.425 61.3C28.545 61.3 26.325 60.58 24.765 59.14C23.205 57.7 22.425 55.82 22.425 53.5C22.425 52.94 22.525 51.96 22.725 50.56C23.645 43.12 24.345 37.2 24.825 32.8C26.065 32.36 27.205 32.14 28.245 32.14C29.285 32.14 30.065 32.18 30.585 32.26C31.105 32.34 31.605 32.64 32.085 33.16C32.565 33.68 32.805 34.42 32.805 35.38L30.825 50.68C30.745 51.16 30.705 51.6 30.705 52C30.705 54.36 31.785 55.54 33.945 55.54C35.945 55.54 37.605 54.56 38.925 52.6C38.925 52.16 38.965 51.46 39.045 50.5L41.025 34.54C41.305 33.86 41.905 33.3 42.825 32.86C43.745 32.38 44.885 32.14 46.245 32.14C47.645 32.14 48.685 32.34 49.365 32.74ZM66.5752 19.24C66.5752 19.48 66.0352 23.78 64.9552 32.14H73.7752V36.76H64.3552L64.1752 38.26C68.8552 42.18 71.1952 46.46 71.1952 51.1C71.1952 54.74 70.2552 57.36 68.3752 58.96C66.5352 60.56 64.3152 61.36 61.7152 61.36C59.1152 61.36 57.2152 60.68 56.0152 59.32C54.8152 57.92 54.2152 56.24 54.2152 54.28C54.2152 53.84 54.2552 53.36 54.3352 52.84L56.1952 36.88L55.9552 36.76H51.0952C51.0552 36.36 51.0352 35.72 51.0352 34.84C51.0352 33.92 51.2152 33.02 51.5752 32.14H56.7352L58.6552 15.82C59.4952 15.5 60.6152 15.34 62.0152 15.34C65.0552 15.34 66.5752 16.64 66.5752 19.24ZM67.1752 51.04C67.1752 48.28 65.9752 45.56 63.5752 42.88C62.8552 48.84 62.4952 52.28 62.4952 53.2C62.4952 55 63.0752 55.9 64.2352 55.9C65.0752 55.9 65.7752 55.52 66.3352 54.76C66.8952 53.96 67.1752 52.72 67.1752 51.04ZM87.2002 19.24C87.2002 19.48 86.6602 23.78 85.5802 32.14H94.4002V36.76H84.9802L84.8002 38.26C89.4802 42.18 91.8202 46.46 91.8202 51.1C91.8202 54.74 90.8802 57.36 89.0002 58.96C87.1602 60.56 84.9402 61.36 82.3402 61.36C79.7402 61.36 77.8402 60.68 76.6402 59.32C75.4402 57.92 74.8402 56.24 74.8402 54.28C74.8402 53.84 74.8802 53.36 74.9602 52.84L76.8202 36.88L76.5802 36.76H71.7202C71.6802 36.36 71.6602 35.72 71.6602 34.84C71.6602 33.92 71.8402 33.02 72.2002 32.14H77.3602L79.2802 15.82C80.1202 15.5 81.2402 15.34 82.6402 15.34C85.6802 15.34 87.2002 16.64 87.2002 19.24ZM87.8002 51.04C87.8002 48.28 86.6002 45.56 84.2002 42.88C83.4802 48.84 83.1202 52.28 83.1202 53.2C83.1202 55 83.7002 55.9 84.8602 55.9C85.7002 55.9 86.4002 55.52 86.9602 54.76C87.5202 53.96 87.8002 52.72 87.8002 51.04ZM109.985 32.14C113.665 32.14 116.725 33.32 119.165 35.68C121.645 38.04 122.885 40.92 122.885 44.32C122.885 49.48 121.365 53.62 118.325 56.74C115.325 59.82 111.685 61.36 107.405 61.36C103.125 61.36 99.7252 60.14 97.2052 57.7C94.7252 55.26 93.4852 52.24 93.4852 48.64C93.4852 43.6 95.0252 39.6 98.1052 36.64C101.225 33.64 105.185 32.14 109.985 32.14ZM108.785 37C106.905 37 105.325 38.08 104.045 40.24C102.765 42.4 102.065 45.12 101.945 48.4C101.945 50.72 102.405 52.64 103.325 54.16C104.285 55.68 105.725 56.44 107.645 56.44C109.565 56.44 111.165 55.38 112.445 53.26C113.765 51.14 114.425 48.72 114.425 46C114.425 43.28 113.965 41.12 113.045 39.52C112.125 37.84 110.705 37 108.785 37Z" fill="#FFF5F6"/>
<path d="M5.68 70.44V70.2H9.952V70.44H8.776V86.76H9.952V87H5.68V86.76H6.784V70.44H5.68ZM18.5046 87H16.5126V70.44H12.3606V70.2H22.6806V70.44H18.5046V87ZM22.4924 87H22.2044L29.3804 70.2L29.6444 70.08L35.6924 87H33.6524L31.7804 81.72H24.7724L22.4924 87ZM28.6364 72.792L24.8684 81.48H31.7084L28.6364 72.792ZM46.9797 87H37.8597V70.2H39.8517V86.76H46.9797V87ZM49.3909 70.44V70.2H53.6629V70.44H52.4869V86.76H53.6629V87H49.3909V86.76H50.4949V70.44H49.3909ZM56.1252 87H55.8372L63.0132 70.2L63.2772 70.08L69.3252 87H67.2852L65.4132 81.72H58.4052L56.1252 87ZM62.2692 72.792L58.5012 81.48H65.3412L62.2692 72.792ZM71.6845 87H71.3725V70.2H72.1885L82.1725 85.728V70.2H82.4845V87H80.7325L71.6845 73.08V87Z" fill="#FFF5F6"/>
<line x1="95" y1="78.5" x2="124" y2="78.5" stroke="#FFF5F6"/>
</svg>
